<svg width="68" height="75" xmlns="http://www.w3.org/2000/svg">
  <path fill="none" d="M-1-1h372v92H-1z"/>
  <g>
    <g stroke-linejoin="bevel" stroke-linecap="square" fill-rule="nonzero" stroke="#000">
      <path d="M64.55 20.21L33.74 2.42 2.93 20.208l-.003.002v35.58l30.812 17.788h.001l30.812-17.789V20.21h-.002m-2.675 34.034L33.74 70.485V59.118L15.45 48.56V27.44l.002-.002 9.223 5.325 9.065-5.233 9.065 5.234h.002v10.47l-9.067 5.234v10.65L52.03 48.56V27.44h-.002v-.002L33.74 16.88 15.452 27.438l-9.845-5.684L33.739 5.512l28.133 16.242.003.002v32.487"/>
      <path d="M24.673 32.765v10.47l9.067 5.234V38l-9.066-5.235h-.001m41.964 51.853V74.203h1.102v10.414h-1.102m9.003-7.885c.982 0 1.763.285 2.344.855.58.57.87 1.401.87 2.492v4.538h-1.056v-4.434c0-.813-.204-1.433-.61-1.86-.407-.426-.987-.64-1.741-.64-.844 0-1.51.251-2.002.752-.49.501-.736 1.193-.736 2.076v4.106h-1.057v-7.826h1.012v1.443a2.94 2.94 0 011.198-1.108c.51-.263 1.103-.394 1.778-.394m12.217.06h1.042l-3.482 7.825H84.33l-3.467-7.826h1.101l2.932 6.666 2.96-6.666m9.882 3.913l-.015.327h-6.548c.06.814.372 1.47.938 1.972.565.5 1.28.751 2.143.751.486 0 .932-.087 1.339-.26a2.926 2.926 0 001.056-.766l.596.684a3.352 3.352 0 01-1.303.952 4.404 4.404 0 01-1.718.327c-.804 0-1.516-.17-2.136-.513a3.7 3.7 0 01-1.45-1.42c-.348-.606-.521-1.29-.521-2.054 0-.764.166-1.448.498-2.053a3.61 3.61 0 011.37-1.413c.58-.338 1.232-.506 1.956-.506s1.374.168 1.95.506a3.586 3.586 0 011.354 1.406c.327.6.49 1.286.49 2.06m-3.794-3.065c-.754 0-1.386.24-1.897.722-.511.48-.801 1.108-.87 1.882h5.55c-.07-.774-.36-1.4-.87-1.882-.512-.48-1.15-.722-1.913-.722m10.684-.907c.982 0 1.764.285 2.344.855.58.57.87 1.401.87 2.492v4.538h-1.056v-4.434c0-.813-.204-1.433-.61-1.86-.407-.426-.987-.64-1.741-.64-.844 0-1.51.251-2.002.752-.49.501-.736 1.193-.736 2.076v4.106h-1.057v-7.826h1.012v1.443a2.94 2.94 0 011.198-1.108c.51-.263 1.104-.394 1.778-.394m10.58 6.65l.372.76a1.999 1.999 0 01-.736.408 2.969 2.969 0 01-.915.141c-.734 0-1.3-.198-1.697-.595-.397-.396-.595-.957-.595-1.68v-4.732h-1.399v-.893h1.399v-1.71h1.056v1.71h2.381v.893h-2.38v4.672c0 .466.116.82.35 1.063.232.243.567.365 1.004.365.218 0 .429-.035.632-.104.203-.07.38-.169.528-.298m5.952 1.31c-.754 0-1.433-.172-2.038-.514a3.742 3.742 0 01-1.429-1.42c-.347-.606-.52-1.29-.52-2.054 0-.764.173-1.448.52-2.053a3.689 3.689 0 011.429-1.413c.605-.338 1.284-.506 2.038-.506.755 0 1.434.168 2.04.506a3.638 3.638 0 011.42 1.413c.342.605.514 1.29.514 2.053 0 .764-.172 1.448-.514 2.053a3.69 3.69 0 01-1.42 1.421c-.606.342-1.285.513-2.04.513m0-.937c.556 0 1.054-.126 1.496-.38a2.645 2.645 0 001.034-1.078c.248-.466.372-.997.372-1.592 0-.595-.124-1.126-.372-1.592a2.645 2.645 0 00-1.034-1.078 2.955 2.955 0 00-1.496-.38c-.555 0-1.053.127-1.495.38a2.694 2.694 0 00-1.042 1.078c-.253.466-.38.997-.38 1.592 0 .595.127 1.126.38 1.592.253.466.6.826 1.042 1.08.442.252.94.38 1.495.38m7.887-5.432a2.56 2.56 0 011.109-1.19c.49-.268 1.098-.402 1.823-.402v1.026l-.253-.015c-.824 0-1.469.253-1.935.76-.466.505-.7 1.214-.7 2.127v3.987h-1.056v-7.826h1.012v1.533m11.458-1.533h1.042l-3.914 8.763c-.317.734-.684 1.255-1.101 1.562-.417.308-.918.462-1.503.462-.377 0-.73-.06-1.056-.179a2.29 2.29 0 01-.849-.535l.491-.789a1.95 1.95 0 001.429.595c.357 0 .662-.1.915-.297.253-.199.489-.536.707-1.012l.342-.759-3.497-7.81h1.101l2.947 6.65 2.946-6.65m17.678-.06c.982 0 1.753.282 2.314.848.56.565.84 1.398.84 2.5v4.537h-1.056v-4.434c0-.813-.196-1.433-.588-1.86-.391-.426-.944-.64-1.659-.64-.813 0-1.453.251-1.92.752-.465.501-.699 1.193-.699 2.076v4.106h-1.056v-4.434c0-.813-.196-1.433-.588-1.86-.392-.426-.95-.64-1.674-.64-.804 0-1.44.251-1.912.752s-.707 1.193-.707 2.076v4.106h-1.057v-7.826h1.012v1.43a2.824 2.824 0 011.161-1.102c.496-.258 1.067-.387 1.711-.387.655 0 1.223.14 1.704.416.481.278.84.69 1.079 1.235a3.05 3.05 0 011.242-1.212c.541-.293 1.159-.44 1.853-.44m9.509 0c1.022 0 1.805.256 2.35.767.547.51.82 1.267.82 2.27v4.85h-1.013v-1.22a2.422 2.422 0 01-1.049.951c-.461.228-1.009.342-1.644.342-.873 0-1.567-.208-2.083-.624-.516-.417-.774-.968-.774-1.652 0-.664.24-1.2.722-1.607.48-.406 1.247-.61 2.299-.61h2.485v-.476c0-.674-.189-1.188-.566-1.54-.377-.352-.927-.528-1.651-.528a4.2 4.2 0 00-1.429.246 3.594 3.594 0 00-1.176.677l-.476-.789a4.225 4.225 0 011.429-.78 5.563 5.563 0 011.756-.276m-.372 7.126c.595 0 1.106-.136 1.532-.409.427-.273.744-.667.953-1.183v-1.28h-2.456c-1.339 0-2.008.467-2.008 1.4 0 .456.173.815.52 1.078.348.263.834.394 1.459.394m11.145-7.126c.982 0 1.764.285 2.344.855.58.57.87 1.401.87 2.492v4.538h-1.056v-4.434c0-.813-.204-1.433-.61-1.86-.407-.426-.987-.64-1.741-.64-.844 0-1.51.251-2.002.752-.49.501-.736 1.193-.736 2.076v4.106h-1.057v-7.826h1.012v1.443a2.94 2.94 0 011.198-1.108c.51-.263 1.104-.394 1.778-.394m9.568 0c1.022 0 1.806.255 2.351.766.546.51.819 1.267.819 2.27v4.85h-1.012v-1.22a2.422 2.422 0 01-1.05.951c-.46.228-1.008.342-1.643.342-.873 0-1.568-.208-2.084-.624-.516-.417-.773-.968-.773-1.652 0-.664.24-1.2.721-1.607.481-.406 1.248-.61 2.3-.61h2.484v-.476c0-.674-.188-1.188-.565-1.54-.377-.352-.928-.528-1.652-.528a4.2 4.2 0 00-1.428.246 3.574 3.574 0 00-1.176.677l-.476-.789a4.225 4.225 0 011.428-.78 5.563 5.563 0 011.756-.276m-.372 7.126c.596 0 1.106-.136 1.533-.409.427-.273.744-.667.952-1.183v-1.28h-2.455c-1.34 0-2.009.467-2.009 1.4 0 .456.174.815.521 1.078.347.263.833.394 1.458.394m13.423-7.067h1.011v6.874c0 1.33-.324 2.313-.974 2.953-.65.64-1.63.96-2.94.96a6.568 6.568 0 01-2.06-.32c-.65-.213-1.178-.509-1.585-.885l.536-.804c.377.337.836.6 1.376.79a5.15 5.15 0 001.704.281c.992 0 1.721-.23 2.187-.69.467-.463.7-1.179.7-2.15v-.998a3.183 3.183 0 01-1.287 1.13 3.982 3.982 0 01-1.764.387 4.162 4.162 0 01-2.001-.483 3.572 3.572 0 01-1.414-1.354c-.342-.58-.513-1.237-.513-1.97s.171-1.39.513-1.965a3.547 3.547 0 011.407-1.34c.595-.317 1.264-.475 2.008-.475.665 0 1.265.134 1.8.401a3.25 3.25 0 011.296 1.16v-1.502m-2.991 6.591a3.21 3.21 0 001.532-.364 2.633 2.633 0 001.064-1.02 2.91 2.91 0 00.38-1.487c0-.556-.127-1.05-.38-1.48a2.661 2.661 0 00-1.056-1.012 3.2 3.2 0 00-1.54-.365c-.566 0-1.074.12-1.526.357a2.596 2.596 0 00-1.056 1.012 2.91 2.91 0 00-.38 1.488c0 .555.127 1.051.38 1.488a2.65 2.65 0 001.056 1.02c.452.242.96.363 1.526.363m14.538-2.678l-.015.327h-6.548c.06.814.372 1.47.938 1.972.565.5 1.28.751 2.143.751.486 0 .932-.087 1.339-.26a2.927 2.927 0 001.056-.766l.596.684a3.35 3.35 0 01-1.302.952 4.404 4.404 0 01-1.719.327c-.804 0-1.515-.17-2.135-.513a3.7 3.7 0 01-1.451-1.42c-.347-.606-.521-1.29-.521-2.054 0-.764.166-1.448.498-2.053a3.608 3.608 0 011.37-1.413c.58-.338 1.232-.506 1.956-.506.725 0 1.374.168 1.95.506a3.586 3.586 0 011.354 1.406c.327.6.49 1.286.49 2.06m-3.794-3.065c-.754 0-1.386.24-1.897.722-.51.48-.801 1.108-.87 1.882h5.55c-.07-.774-.36-1.4-.87-1.882-.511-.48-1.149-.722-1.913-.722m16.458-.907c.982 0 1.753.282 2.314.848.56.565.84 1.398.84 2.5v4.537h-1.056v-4.434c0-.813-.196-1.433-.588-1.86-.391-.426-.944-.64-1.659-.64-.813 0-1.453.251-1.92.752-.465.501-.699 1.193-.699 2.076v4.106h-1.056v-4.434c0-.813-.196-1.433-.588-1.86-.392-.426-.95-.64-1.674-.64-.804 0-1.44.251-1.912.752s-.707 1.193-.707 2.076v4.106h-1.057v-7.826h1.012v1.43a2.824 2.824 0 011.161-1.102c.496-.258 1.067-.387 1.711-.387.655 0 1.223.14 1.704.416.481.278.84.69 1.079 1.235a3.05 3.05 0 011.242-1.212c.541-.293 1.159-.44 1.853-.44m13.63 3.973l-.014.327h-6.548c.06.814.372 1.47.938 1.972.565.5 1.28.751 2.143.751.486 0 .932-.087 1.339-.26a2.927 2.927 0 001.056-.766l.596.684a3.35 3.35 0 01-1.303.952 4.404 4.404 0 01-1.718.327c-.804 0-1.515-.17-2.136-.513a3.7 3.7 0 01-1.45-1.42c-.348-.606-.521-1.29-.521-2.054 0-.764.166-1.448.498-2.053a3.608 3.608 0 011.37-1.413c.58-.338 1.232-.506 1.956-.506s1.374.168 1.95.506a3.586 3.586 0 011.354 1.406c.327.6.49 1.286.49 2.06m-3.794-3.065c-.754 0-1.386.24-1.897.722-.511.48-.801 1.108-.87 1.882h5.55c-.07-.774-.36-1.4-.87-1.882-.512-.48-1.15-.722-1.913-.722m10.684-.907c.982 0 1.764.285 2.344.855.58.57.87 1.401.87 2.492v4.538h-1.056v-4.434c0-.813-.204-1.433-.61-1.86-.407-.426-.987-.64-1.741-.64-.844 0-1.51.251-2.002.752-.49.501-.736 1.193-.736 2.076v4.106h-1.057v-7.826h1.012v1.443a2.94 2.94 0 011.198-1.108c.51-.263 1.104-.394 1.778-.394m10.58 6.65l.372.76a1.999 1.999 0 01-.736.408 2.969 2.969 0 01-.915.141c-.734 0-1.3-.198-1.697-.595-.397-.396-.595-.957-.595-1.68v-4.732h-1.399v-.893h1.399v-1.71h1.056v1.71h2.381v.893h-2.38v4.672c0 .466.116.82.35 1.063.232.243.567.365 1.004.365.218 0 .429-.035.632-.104.203-.07.38-.169.528-.298m17.44-6.65c.982 0 1.753.282 2.314.848.56.565.84 1.398.84 2.5v4.537h-1.056v-4.434c0-.813-.196-1.433-.587-1.86-.392-.426-.945-.64-1.66-.64-.813 0-1.453.251-1.92.752-.465.501-.699 1.193-.699 2.076v4.106h-1.056v-4.434c0-.813-.196-1.433-.588-1.86-.392-.426-.95-.64-1.674-.64-.803 0-1.44.251-1.912.752-.471.501-.707 1.193-.707 2.076v4.106h-1.056v-7.826h1.011v1.43a2.824 2.824 0 011.161-1.102c.496-.258 1.067-.387 1.711-.387.655 0 1.223.14 1.704.416.481.278.841.69 1.079 1.235a3.05 3.05 0 011.243-1.212c.54-.293 1.158-.44 1.852-.44m9.509 0c1.022 0 1.805.256 2.35.767.547.51.82 1.267.82 2.27v4.85h-1.013v-1.22a2.422 2.422 0 01-1.049.951c-.46.228-1.009.342-1.644.342-.873 0-1.567-.208-2.083-.624-.516-.417-.774-.968-.774-1.652 0-.664.24-1.2.722-1.607.48-.406 1.247-.61 2.299-.61h2.485v-.476c0-.674-.189-1.188-.566-1.54-.376-.352-.927-.528-1.651-.528a4.2 4.2 0 00-1.429.246 3.579 3.579 0 00-1.175.677l-.477-.789a4.225 4.225 0 011.429-.78 5.563 5.563 0 011.756-.276m-.372 7.126c.595 0 1.106-.136 1.532-.409.427-.273.745-.667.953-1.183v-1.28H283c-1.34 0-2.01.467-2.01 1.4 0 .456.174.815.522 1.078.347.263.833.394 1.458.394m13.273-10.28h1.057v11.04h-1.012V83.07a3.221 3.221 0 01-1.258 1.205c-.52.278-1.108.416-1.763.416a3.974 3.974 0 01-1.994-.505 3.616 3.616 0 01-1.399-1.414c-.337-.605-.506-1.294-.506-2.068s.169-1.463.506-2.068a3.565 3.565 0 011.4-1.406 4.02 4.02 0 011.993-.498 3.7 3.7 0 011.719.394c.51.263.93.647 1.257 1.153v-4.7m-2.887 10.175c.546 0 1.04-.126 1.481-.38a2.694 2.694 0 001.042-1.078c.253-.466.38-.997.38-1.592 0-.595-.127-1.126-.38-1.592a2.694 2.694 0 00-1.042-1.078 2.925 2.925 0 00-1.48-.38c-.556 0-1.055.127-1.496.38a2.694 2.694 0 00-1.042 1.078c-.253.466-.38.997-.38 1.592 0 .595.127 1.126.38 1.592.253.466.6.826 1.042 1.08.441.252.94.38 1.495.38m14.464-3.05l-.015.325h-6.547c.06.814.372 1.47.937 1.972.566.5 1.28.751 2.143.751.486 0 .933-.087 1.34-.26a2.927 2.927 0 001.056-.766l.595.684a3.35 3.35 0 01-1.302.952 4.404 4.404 0 01-1.719.327c-.803 0-1.515-.17-2.135-.513a3.7 3.7 0 01-1.45-1.42c-.348-.606-.522-1.29-.522-2.054 0-.764.167-1.448.499-2.053a3.608 3.608 0 011.369-1.413c.58-.338 1.232-.506 1.957-.506.724 0 1.374.168 1.949.506a3.586 3.586 0 011.354 1.406c.328.6.491 1.286.491 2.06m-3.794-3.065c-.754 0-1.387.24-1.898.722-.51.48-.8 1.108-.87 1.882h5.55c-.07-.774-.36-1.4-.87-1.882-.511-.48-1.149-.722-1.912-.722m13.437 7.052a6.01 6.01 0 01-1.823-.275c-.58-.183-1.034-.414-1.362-.692l.476-.833c.328.258.74.47 1.236.632a4.907 4.907 0 001.547.246c.714 0 1.243-.112 1.585-.335.342-.223.513-.538.513-.945 0-.287-.094-.513-.282-.676a1.88 1.88 0 00-.715-.372 9.95 9.95 0 00-1.145-.246 13.132 13.132 0 01-1.533-.364 2.251 2.251 0 01-.99-.633c-.272-.297-.409-.709-.409-1.235 0-.654.273-1.19.818-1.606.546-.417 1.305-.625 2.277-.625a5.91 5.91 0 011.518.2c.506.135.923.31 1.25.53l-.461.847c-.645-.447-1.414-.67-2.307-.67-.674 0-1.183.12-1.525.357-.342.238-.513.55-.513.938 0 .297.096.535.29.714.193.178.434.31.721.394.288.084.685.171 1.19.26a13.69 13.69 0 011.504.358c.377.12.7.322.967.61.268.287.402.684.402 1.19 0 .684-.286 1.227-.856 1.63-.57.401-1.361.601-2.373.601m5.922-.074v-7.826h1.057v7.826h-1.057m.536-9.537a.748.748 0 01-.55-.223.73.73 0 01-.224-.535c0-.199.074-.372.223-.52a.748.748 0 01.55-.224c.22 0 .403.072.551.215a.69.69 0 01.224.514.748.748 0 01-.224.55.748.748 0 01-.55.223m13.973 1.652c.982 0 1.753.282 2.314.848.56.565.84 1.398.84 2.5v4.537h-1.056v-4.434c0-.813-.196-1.433-.588-1.86-.392-.426-.945-.64-1.66-.64-.813 0-1.453.251-1.919.752-.466.501-.7 1.193-.7 2.076v4.106h-1.056v-4.434c0-.813-.196-1.433-.587-1.86-.392-.426-.95-.64-1.674-.64-.804 0-1.441.251-1.913.752-.471.501-.706 1.193-.706 2.076v4.106h-1.057v-7.826h1.012v1.43a2.824 2.824 0 011.16-1.102c.496-.258 1.067-.387 1.712-.387.655 0 1.223.14 1.704.416.48.278.84.69 1.079 1.235a3.05 3.05 0 011.242-1.212c.54-.293 1.158-.44 1.853-.44m10.803 0a4.02 4.02 0 011.994.5 3.56 3.56 0 011.399 1.405c.337.605.506 1.294.506 2.068 0 .784-.169 1.478-.506 2.083a3.578 3.578 0 01-1.392 1.406c-.59.332-1.257.498-2.001.498a3.7 3.7 0 01-1.719-.394 3.258 3.258 0 01-1.257-1.153v4.36h-1.058V76.791h1.012v1.548a3.253 3.253 0 011.258-1.19c.52-.278 1.108-.417 1.763-.417m-.075 7.022a2.96 2.96 0 001.489-.38 2.68 2.68 0 001.049-1.078c.253-.466.379-.997.379-1.592 0-.595-.126-1.123-.38-1.584a2.743 2.743 0 00-1.048-1.079 2.92 2.92 0 00-1.489-.387 2.91 2.91 0 00-1.495.387 2.758 2.758 0 00-1.042 1.08c-.253.46-.38.988-.38 1.583s.127 1.126.38 1.592c.253.466.6.826 1.042 1.08.442.252.94.38 1.495.38m6.875.861v-11.04h1.057v11.04h-1.057m11.577-3.913l-.015.327h-6.547c.06.814.372 1.47.937 1.972.566.5 1.28.751 2.143.751.486 0 .933-.087 1.34-.26a2.927 2.927 0 001.056-.766l.595.684a3.35 3.35 0 01-1.302.952 4.404 4.404 0 01-1.719.327c-.803 0-1.515-.17-2.135-.513a3.7 3.7 0 01-1.45-1.42c-.348-.606-.522-1.29-.522-2.054 0-.764.167-1.448.499-2.053a3.608 3.608 0 011.369-1.413c.58-.338 1.232-.506 1.957-.506.724 0 1.374.168 1.95.506a3.586 3.586 0 011.353 1.406c.328.6.491 1.286.491 2.06m-3.794-3.065c-.754 0-1.387.24-1.898.722-.51.48-.8 1.108-.87 1.882h5.55c-.07-.774-.36-1.4-.87-1.882-.51-.48-1.149-.722-1.912-.722M84.911 25.517v20.394c.43.078.957.146 1.582.205.626.058 1.212.088 1.759.088 1.328 0 2.549-.196 3.662-.586a7.357 7.357 0 002.872-1.817c.8-.82 1.426-1.885 1.875-3.194.45-1.309.674-2.88.674-4.718 0-3.516-.82-6.163-2.461-7.94-1.641-1.778-3.829-2.667-6.564-2.667-.547 0-1.103.02-1.67.06-.567.038-1.143.097-1.729.175m3.282 28.95c-.664 0-1.426-.02-2.286-.059a32.874 32.874 0 01-2.666-.234 44.82 44.82 0 01-2.754-.44 13.883 13.883 0 01-2.55-.732c-2.148-.82-3.223-2.247-3.223-4.278V21.356c0-.82.225-1.455.674-1.905.45-.45 1.065-.81 1.846-1.084a24.59 24.59 0 015.333-1.084c1.875-.176 3.555-.264 5.04-.264 3.047 0 5.811.371 8.292 1.114 2.481.742 4.61 1.885 6.388 3.428 1.778 1.543 3.155 3.487 4.132 5.831.976 2.344 1.465 5.118 1.465 8.322 0 3.125-.47 5.85-1.407 8.175-.938 2.324-2.276 4.278-4.014 5.86-1.739 1.582-3.82 2.764-6.241 3.546-2.423.781-5.099 1.172-8.03 1.172m34.753-20.98V53.47c-.391.118-1.006.235-1.846.352-.84.117-1.71.176-2.608.176-.86 0-1.631-.059-2.315-.176-.684-.117-1.26-.352-1.729-.703-.469-.352-.83-.83-1.084-1.436-.254-.606-.38-1.397-.38-2.373V31.73c0-.9.165-1.67.497-2.316.332-.645.81-1.22 1.436-1.729.625-.508 1.397-.967 2.315-1.377a23.76 23.76 0 012.96-1.084 25.081 25.081 0 013.281-.733 22.135 22.135 0 013.4-.264c1.874 0 3.359.362 4.453 1.085 1.094.722 1.64 1.904 1.64 3.545 0 .547-.077 1.084-.234 1.612a7.353 7.353 0 01-.586 1.435 27.907 27.907 0 00-5.04.47c-.82.156-1.592.322-2.314.497-.723.176-1.338.381-1.846.616m43.6 5.801c0 2.423-.37 4.581-1.113 6.476-.742 1.895-1.787 3.487-3.135 4.776-1.348 1.29-2.96 2.266-4.835 2.93-1.875.665-3.966.997-6.27.997-2.306 0-4.396-.352-6.271-1.055s-3.487-1.71-4.835-3.018c-1.348-1.31-2.393-2.9-3.135-4.776-.743-1.876-1.114-3.985-1.114-6.33 0-2.305.371-4.395 1.114-6.27.742-1.875 1.787-3.468 3.135-4.776 1.348-1.309 2.96-2.315 4.835-3.018 1.875-.704 3.965-1.055 6.27-1.055 2.305 0 4.396.361 6.27 1.084 1.876.723 3.488 1.74 4.836 3.047 1.348 1.31 2.393 2.901 3.135 4.776.742 1.876 1.113 3.946 1.113 6.212m-20.51 0c0 2.384.458 4.21 1.376 5.48.919 1.27 2.198 1.904 3.839 1.904 1.64 0 2.9-.644 3.78-1.933.879-1.29 1.318-3.106 1.318-5.45 0-2.345-.449-4.152-1.347-5.42-.899-1.27-2.169-1.906-3.81-1.906-1.64 0-2.91.635-3.809 1.905-.898 1.27-1.348 3.076-1.348 5.42m39.264-15.12c2.227 0 4.25.284 6.066.85 1.817.567 3.35 1.3 4.6 2.198.782.547 1.397 1.153 1.846 1.817.45.664.674 1.524.674 2.578v20.512c0 2.07-.39 3.858-1.172 5.362a10.777 10.777 0 01-3.194 3.75c-1.348.997-2.93 1.73-4.747 2.198-1.816.47-3.76.703-5.83.703-3.556 0-6.35-.478-8.38-1.436-2.033-.957-3.048-2.51-3.048-4.659 0-.898.185-1.69.556-2.373.372-.684.792-1.2 1.26-1.553 1.133.625 2.413 1.153 3.839 1.582 1.426.43 2.9.645 4.424.645 2.11 0 3.79-.352 5.04-1.055s1.876-1.836 1.876-3.399v-.938c-1.602.704-3.556 1.055-5.86 1.055a15.74 15.74 0 01-5.011-.79 11.208 11.208 0 01-4.161-2.462c-1.192-1.114-2.149-2.55-2.872-4.307-.722-1.759-1.084-3.849-1.084-6.27 0-2.384.381-4.455 1.143-6.213s1.817-3.213 3.165-4.366c1.347-1.152 2.95-2.012 4.805-2.578 1.856-.567 3.878-.85 6.065-.85m3.634 19.28V32.666c-.274-.156-.674-.312-1.202-.469-.527-.156-1.181-.234-1.963-.234-1.914 0-3.35.537-4.307 1.612-.957 1.074-1.436 2.607-1.436 4.6 0 2.266.479 3.897 1.436 4.893.957.997 2.178 1.495 3.663 1.495 1.601 0 2.871-.37 3.809-1.114m15.706-1.23V25.46c.39-.118 1.006-.235 1.846-.353.84-.117 1.709-.175 2.607-.175.86 0 1.631.058 2.315.175.684.118 1.26.352 1.729.704.469.351.83.83 1.084 1.435.254.606.381 1.397.381 2.374v12.6c0 1.601.39 2.744 1.172 3.428.781.684 1.915 1.025 3.4 1.025.897 0 1.63-.078 2.197-.234.567-.156 1.006-.313 1.318-.469V25.46c.391-.118 1.007-.235 1.846-.353a18.9 18.9 0 012.608-.175c.86 0 1.63.058 2.315.175.684.118 1.26.352 1.729.704.469.351.83.83 1.084 1.435.253.606.38 1.397.38 2.374v17.815c0 1.954-.82 3.42-2.46 4.396-1.367.86-3 1.513-4.894 1.963-1.894.45-3.956.674-6.183.674-2.11 0-4.053-.235-5.83-.704-1.778-.468-3.312-1.19-4.6-2.168-1.29-.977-2.286-2.237-2.99-3.78-.703-1.543-1.054-3.409-1.054-5.596m49.168 12.248c-2.305 0-4.444-.323-6.417-.967-1.974-.645-3.692-1.612-5.158-2.9-1.465-1.29-2.618-2.91-3.457-4.865-.84-1.954-1.26-4.24-1.26-6.857 0-2.578.42-4.795 1.26-6.65.84-1.857 1.944-3.38 3.31-4.572a13.233 13.233 0 014.69-2.637 17.476 17.476 0 015.39-.85c2.07 0 3.956.312 5.656.937 1.7.626 3.164 1.485 4.395 2.58a11.483 11.483 0 012.872 3.925c.684 1.524 1.025 3.184 1.025 4.982 0 1.328-.37 2.344-1.113 3.047-.743.703-1.777 1.153-3.106 1.348l-14.475 2.168c.43 1.29 1.308 2.256 2.637 2.901s2.852.967 4.571.967c1.601 0 3.116-.205 4.542-.615 1.425-.41 2.589-.89 3.487-1.436.625.39 1.153.938 1.582 1.64.43.704.645 1.446.645 2.228 0 1.758-.82 3.067-2.462 3.926-1.25.664-2.656 1.114-4.22 1.348a29.727 29.727 0 01-4.394.352m-1.641-23.03c-.938 0-1.748.155-2.432.467-.685.313-1.241.713-1.67 1.202a5.006 5.006 0 00-.967 1.64 6.756 6.756 0 00-.381 1.847l10.02-1.64c-.116-.783-.546-1.564-1.289-2.345-.742-.782-1.835-1.172-3.281-1.172m28.715 2.05V53.47c-.39.118-1.006.235-1.846.352-.84.117-1.71.176-2.608.176-.86 0-1.63-.059-2.314-.176-.685-.117-1.26-.352-1.73-.703-.468-.352-.83-.83-1.083-1.436-.254-.606-.381-1.397-.381-2.373V31.73c0-.9.165-1.67.498-2.316.332-.645.81-1.22 1.436-1.729.625-.508 1.396-.967 2.314-1.377a23.9 23.9 0 012.96-1.084 25.097 25.097 0 013.282-.733 22.135 22.135 0 013.399-.264c1.875 0 3.36.362 4.454 1.085 1.094.722 1.64 1.904 1.64 3.545 0 .547-.077 1.084-.234 1.612a7.38 7.38 0 01-.586 1.435 27.907 27.907 0 00-5.04.47c-.82.156-1.592.322-2.315.497-.722.176-1.337.381-1.846.616m13.89-16.35c0-1.485.497-2.735 1.494-3.75.996-1.017 2.314-1.525 3.955-1.525s2.96.508 3.956 1.524 1.494 2.266 1.494 3.75c0 1.485-.498 2.735-1.494 3.751s-2.315 1.524-3.956 1.524c-1.64 0-2.96-.508-3.955-1.524-.997-1.016-1.495-2.266-1.495-3.75m10.432 12.482V53.47c-.43.08-1.066.186-1.905.323-.84.136-1.69.205-2.55.205-.86 0-1.63-.059-2.314-.176-.684-.117-1.26-.352-1.729-.703-.469-.352-.83-.83-1.084-1.436-.253-.606-.381-1.397-.381-2.373V25.458c.43-.078 1.065-.186 1.905-.322.84-.137 1.689-.205 2.549-.205.86 0 1.63.058 2.315.175.684.118 1.26.352 1.729.704.468.351.83.83 1.084 1.435.253.606.38 1.397.38 2.374m30.357 15.413c0 2.97-1.113 5.293-3.34 6.973-2.227 1.68-5.509 2.52-9.846 2.52-1.64 0-3.164-.117-4.57-.35-1.407-.236-2.609-.597-3.605-1.086-.996-.488-1.777-1.103-2.344-1.846-.567-.742-.85-1.62-.85-2.637 0-.937.195-1.728.586-2.373a5.95 5.95 0 011.407-1.612c1.132.625 2.432 1.182 3.897 1.67 1.465.49 3.154.733 5.07.733 1.21 0 2.138-.176 2.783-.527.644-.352.967-.82.967-1.407 0-.547-.235-.977-.704-1.29-.468-.312-1.25-.566-2.344-.76l-1.758-.353c-3.399-.664-5.929-1.709-7.589-3.135-1.66-1.426-2.49-3.467-2.49-6.124 0-1.445.312-2.754.937-3.926a8.236 8.236 0 012.637-2.93c1.133-.782 2.49-1.387 4.073-1.817 1.583-.43 3.33-.645 5.245-.645 1.446 0 2.803.108 4.073.323 1.27.214 2.374.537 3.311.966.938.43 1.68.987 2.227 1.67.547.684.82 1.495.82 2.433 0 .898-.165 1.67-.498 2.315a5.198 5.198 0 01-1.26 1.611c-.312-.195-.78-.4-1.406-.615a21.713 21.713 0 00-2.051-.586 28.807 28.807 0 00-2.256-.44 13.779 13.779 0 00-2.08-.176c-1.29 0-2.286.147-2.99.44-.703.293-1.054.752-1.054 1.377 0 .43.194.781.586 1.055.39.273 1.132.527 2.227.762l1.816.41c3.75.86 6.417 2.041 8 3.546 1.582 1.504 2.373 3.447 2.373 5.83m14.768-10.138v8.85c0 1.015.322 1.738.967 2.168.645.43 1.553.644 2.725.644.586 0 1.191-.049 1.817-.146a10.2 10.2 0 001.64-.38 7.1 7.1 0 01.909 1.435c.253.527.38 1.162.38 1.904 0 1.485-.556 2.696-1.67 3.634-1.113.937-3.076 1.406-5.889 1.406-3.438 0-6.084-.78-7.94-2.344-1.857-1.563-2.784-4.102-2.784-7.618V19.363a20.66 20.66 0 011.846-.38 15.157 15.157 0 012.549-.206c1.718 0 3.058.303 4.014.91.957.604 1.436 1.884 1.436 3.837v3.75h7.677c.234.43.459.968.674 1.612.215.645.322 1.358.322 2.14 0 1.367-.303 2.353-.908 2.96-.605.604-1.417.907-2.432.907h-5.333"/>
    </g>
  </g>
</svg>
